%TF.GenerationSoftware,KiCad,Pcbnew,(5.1.8)-1*%
%TF.CreationDate,2020-12-17T22:05:36-08:00*%
%TF.ProjectId,20201217_Projects_MCP1792T,32303230-3132-4313-975f-50726f6a6563,rev?*%
%TF.SameCoordinates,PX7a72ec8PY61bdba8*%
%TF.FileFunction,Legend,Top*%
%TF.FilePolarity,Positive*%
%FSLAX46Y46*%
G04 Gerber Fmt 4.6, Leading zero omitted, Abs format (unit mm)*
G04 Created by KiCad (PCBNEW (5.1.8)-1) date 2020-12-17 22:05:36*
%MOMM*%
%LPD*%
G01*
G04 APERTURE LIST*
%ADD10C,0.200000*%
%ADD11C,0.120000*%
%ADD12C,0.150000*%
G04 APERTURE END LIST*
D10*
X18122976Y971500D02*
X18046785Y1009596D01*
X17932500Y1009596D01*
X17818214Y971500D01*
X17742023Y895310D01*
X17703928Y819120D01*
X17665833Y666739D01*
X17665833Y552453D01*
X17703928Y400072D01*
X17742023Y323881D01*
X17818214Y247691D01*
X17932500Y209596D01*
X18008690Y209596D01*
X18122976Y247691D01*
X18161071Y285786D01*
X18161071Y552453D01*
X18008690Y552453D01*
X18503928Y209596D02*
X18503928Y1009596D01*
X18961071Y209596D01*
X18961071Y1009596D01*
X19342023Y209596D02*
X19342023Y1009596D01*
X19532500Y1009596D01*
X19646785Y971500D01*
X19722976Y895310D01*
X19761071Y819120D01*
X19799166Y666739D01*
X19799166Y552453D01*
X19761071Y400072D01*
X19722976Y323881D01*
X19646785Y247691D01*
X19532500Y209596D01*
X19342023Y209596D01*
X723976Y971500D02*
X647785Y1009596D01*
X533500Y1009596D01*
X419214Y971500D01*
X343023Y895310D01*
X304928Y819120D01*
X266833Y666739D01*
X266833Y552453D01*
X304928Y400072D01*
X343023Y323881D01*
X419214Y247691D01*
X533500Y209596D01*
X609690Y209596D01*
X723976Y247691D01*
X762071Y285786D01*
X762071Y552453D01*
X609690Y552453D01*
X1104928Y209596D02*
X1104928Y1009596D01*
X1562071Y209596D01*
X1562071Y1009596D01*
X1943023Y209596D02*
X1943023Y1009596D01*
X2133500Y1009596D01*
X2247785Y971500D01*
X2323976Y895310D01*
X2362071Y819120D01*
X2400166Y666739D01*
X2400166Y552453D01*
X2362071Y400072D01*
X2323976Y323881D01*
X2247785Y247691D01*
X2133500Y209596D01*
X1943023Y209596D01*
X17132476Y7359596D02*
X17399142Y6559596D01*
X17665809Y7359596D01*
X18084857Y7359596D02*
X18237238Y7359596D01*
X18313428Y7321500D01*
X18389619Y7245310D01*
X18427714Y7092929D01*
X18427714Y6826262D01*
X18389619Y6673881D01*
X18313428Y6597691D01*
X18237238Y6559596D01*
X18084857Y6559596D01*
X18008666Y6597691D01*
X17932476Y6673881D01*
X17894380Y6826262D01*
X17894380Y7092929D01*
X17932476Y7245310D01*
X18008666Y7321500D01*
X18084857Y7359596D01*
X18770571Y7359596D02*
X18770571Y6711977D01*
X18808666Y6635786D01*
X18846761Y6597691D01*
X18922952Y6559596D01*
X19075333Y6559596D01*
X19151523Y6597691D01*
X19189619Y6635786D01*
X19227714Y6711977D01*
X19227714Y7359596D01*
X19494380Y7359596D02*
X19951523Y7359596D01*
X19722952Y6559596D02*
X19722952Y7359596D01*
X444609Y7359596D02*
X711276Y6559596D01*
X977942Y7359596D01*
X1244609Y6559596D02*
X1244609Y7359596D01*
X1625561Y6559596D02*
X1625561Y7359596D01*
X2082704Y6559596D01*
X2082704Y7359596D01*
D11*
%TO.C,C101*%
X7079800Y4489000D02*
X7079800Y2489000D01*
X10039800Y2489000D02*
X10039800Y4489000D01*
%TO.C,C102*%
X17202600Y2489000D02*
X17202600Y4489000D01*
X14242600Y4489000D02*
X14242600Y2489000D01*
%TO.C,P101*%
X2616200Y6324600D02*
X2616200Y1244600D01*
X2616200Y1244600D02*
X76200Y1244600D01*
X76200Y1244600D02*
X76200Y6324600D01*
X76200Y6324600D02*
X2616200Y6324600D01*
%TO.C,P102*%
X17449800Y6324600D02*
X19989800Y6324600D01*
X17449800Y1244600D02*
X17449800Y6324600D01*
X19989800Y1244600D02*
X17449800Y1244600D01*
X19989800Y6324600D02*
X19989800Y1244600D01*
%TO.C,U101*%
X13565800Y1839000D02*
X11165800Y1839000D01*
X11165800Y1839000D02*
X11165800Y2889000D01*
X12965800Y5139000D02*
X11165800Y5139000D01*
X11165800Y5139000D02*
X11165800Y4089000D01*
%TO.C,L101*%
X4451400Y6416600D02*
X5251400Y6416600D01*
X4451400Y5216600D02*
X5251400Y5216600D01*
%TO.C,C101*%
D12*
X6843685Y836372D02*
X6872257Y807800D01*
X6900828Y722086D01*
X6900828Y664943D01*
X6872257Y579229D01*
X6815114Y522086D01*
X6757971Y493515D01*
X6643685Y464943D01*
X6557971Y464943D01*
X6443685Y493515D01*
X6386542Y522086D01*
X6329400Y579229D01*
X6300828Y664943D01*
X6300828Y722086D01*
X6329400Y807800D01*
X6357971Y836372D01*
X6900828Y1407800D02*
X6900828Y1064943D01*
X6900828Y1236372D02*
X6300828Y1236372D01*
X6386542Y1179229D01*
X6443685Y1122086D01*
X6472257Y1064943D01*
X6300828Y1779229D02*
X6300828Y1836372D01*
X6329400Y1893515D01*
X6357971Y1922086D01*
X6415114Y1950658D01*
X6529400Y1979229D01*
X6672257Y1979229D01*
X6786542Y1950658D01*
X6843685Y1922086D01*
X6872257Y1893515D01*
X6900828Y1836372D01*
X6900828Y1779229D01*
X6872257Y1722086D01*
X6843685Y1693515D01*
X6786542Y1664943D01*
X6672257Y1636372D01*
X6529400Y1636372D01*
X6415114Y1664943D01*
X6357971Y1693515D01*
X6329400Y1722086D01*
X6300828Y1779229D01*
X6900828Y2550658D02*
X6900828Y2207800D01*
X6900828Y2379229D02*
X6300828Y2379229D01*
X6386542Y2322086D01*
X6443685Y2264943D01*
X6472257Y2207800D01*
%TO.C,C102*%
X12358771Y734715D02*
X12330200Y706143D01*
X12244485Y677572D01*
X12187342Y677572D01*
X12101628Y706143D01*
X12044485Y763286D01*
X12015914Y820429D01*
X11987342Y934715D01*
X11987342Y1020429D01*
X12015914Y1134715D01*
X12044485Y1191858D01*
X12101628Y1249000D01*
X12187342Y1277572D01*
X12244485Y1277572D01*
X12330200Y1249000D01*
X12358771Y1220429D01*
X12930200Y677572D02*
X12587342Y677572D01*
X12758771Y677572D02*
X12758771Y1277572D01*
X12701628Y1191858D01*
X12644485Y1134715D01*
X12587342Y1106143D01*
X13301628Y1277572D02*
X13358771Y1277572D01*
X13415914Y1249000D01*
X13444485Y1220429D01*
X13473057Y1163286D01*
X13501628Y1049000D01*
X13501628Y906143D01*
X13473057Y791858D01*
X13444485Y734715D01*
X13415914Y706143D01*
X13358771Y677572D01*
X13301628Y677572D01*
X13244485Y706143D01*
X13215914Y734715D01*
X13187342Y791858D01*
X13158771Y906143D01*
X13158771Y1049000D01*
X13187342Y1163286D01*
X13215914Y1220429D01*
X13244485Y1249000D01*
X13301628Y1277572D01*
X13730200Y1220429D02*
X13758771Y1249000D01*
X13815914Y1277572D01*
X13958771Y1277572D01*
X14015914Y1249000D01*
X14044485Y1220429D01*
X14073057Y1163286D01*
X14073057Y1106143D01*
X14044485Y1020429D01*
X13701628Y677572D01*
X14073057Y677572D01*
%TO.C,U101*%
X11188828Y6052772D02*
X11188828Y5567058D01*
X11217400Y5509915D01*
X11245971Y5481343D01*
X11303114Y5452772D01*
X11417400Y5452772D01*
X11474542Y5481343D01*
X11503114Y5509915D01*
X11531685Y5567058D01*
X11531685Y6052772D01*
X12131685Y5452772D02*
X11788828Y5452772D01*
X11960257Y5452772D02*
X11960257Y6052772D01*
X11903114Y5967058D01*
X11845971Y5909915D01*
X11788828Y5881343D01*
X12503114Y6052772D02*
X12560257Y6052772D01*
X12617400Y6024200D01*
X12645971Y5995629D01*
X12674542Y5938486D01*
X12703114Y5824200D01*
X12703114Y5681343D01*
X12674542Y5567058D01*
X12645971Y5509915D01*
X12617400Y5481343D01*
X12560257Y5452772D01*
X12503114Y5452772D01*
X12445971Y5481343D01*
X12417400Y5509915D01*
X12388828Y5567058D01*
X12360257Y5681343D01*
X12360257Y5824200D01*
X12388828Y5938486D01*
X12417400Y5995629D01*
X12445971Y6024200D01*
X12503114Y6052772D01*
X13274542Y5452772D02*
X12931685Y5452772D01*
X13103114Y5452772D02*
X13103114Y6052772D01*
X13045971Y5967058D01*
X12988828Y5909915D01*
X12931685Y5881343D01*
%TO.C,L101*%
X4129171Y4173572D02*
X3843457Y4173572D01*
X3843457Y4773572D01*
X4643457Y4173572D02*
X4300600Y4173572D01*
X4472028Y4173572D02*
X4472028Y4773572D01*
X4414885Y4687858D01*
X4357742Y4630715D01*
X4300600Y4602143D01*
X5014885Y4773572D02*
X5072028Y4773572D01*
X5129171Y4745000D01*
X5157742Y4716429D01*
X5186314Y4659286D01*
X5214885Y4545000D01*
X5214885Y4402143D01*
X5186314Y4287858D01*
X5157742Y4230715D01*
X5129171Y4202143D01*
X5072028Y4173572D01*
X5014885Y4173572D01*
X4957742Y4202143D01*
X4929171Y4230715D01*
X4900600Y4287858D01*
X4872028Y4402143D01*
X4872028Y4545000D01*
X4900600Y4659286D01*
X4929171Y4716429D01*
X4957742Y4745000D01*
X5014885Y4773572D01*
X5786314Y4173572D02*
X5443457Y4173572D01*
X5614885Y4173572D02*
X5614885Y4773572D01*
X5557742Y4687858D01*
X5500600Y4630715D01*
X5443457Y4602143D01*
%TD*%
M02*
