%TF.GenerationSoftware,KiCad,Pcbnew,(5.1.8)-1*%
%TF.CreationDate,2020-12-17T22:05:35-08:00*%
%TF.ProjectId,20201217_Projects_MCP1792T,32303230-3132-4313-975f-50726f6a6563,rev?*%
%TF.SameCoordinates,PX7a72ec8PY61bdba8*%
%TF.FileFunction,Copper,L1,Top*%
%TF.FilePolarity,Positive*%
%FSLAX46Y46*%
G04 Gerber Fmt 4.6, Leading zero omitted, Abs format (unit mm)*
G04 Created by KiCad (PCBNEW (5.1.8)-1) date 2020-12-17 22:05:35*
%MOMM*%
%LPD*%
G01*
G04 APERTURE LIST*
%TA.AperFunction,SMDPad,CuDef*%
%ADD10R,2.500000X2.000000*%
%TD*%
%TA.AperFunction,ComponentPad*%
%ADD11C,2.000000*%
%TD*%
%TA.AperFunction,SMDPad,CuDef*%
%ADD12R,0.900000X0.800000*%
%TD*%
%TA.AperFunction,SMDPad,CuDef*%
%ADD13R,1.150000X1.000000*%
%TD*%
%TA.AperFunction,Conductor*%
%ADD14C,0.254000*%
%TD*%
G04 APERTURE END LIST*
D10*
%TO.P,C101,2*%
%TO.N,GND*%
X8559800Y1489000D03*
%TO.P,C101,1*%
%TO.N,Net-(C101-Pad1)*%
X8559800Y5489000D03*
%TD*%
%TO.P,C102,1*%
%TO.N,Net-(C102-Pad1)*%
X15722600Y5489000D03*
%TO.P,C102,2*%
%TO.N,GND*%
X15722600Y1489000D03*
%TD*%
D11*
%TO.P,P101,1*%
%TO.N,Net-(L101-Pad1)*%
X1346200Y5054600D03*
%TO.P,P101,2*%
%TO.N,GND*%
X1346200Y2514600D03*
%TD*%
%TO.P,P102,2*%
%TO.N,GND*%
X18719800Y2514600D03*
%TO.P,P102,1*%
%TO.N,Net-(C102-Pad1)*%
X18719800Y5054600D03*
%TD*%
D12*
%TO.P,U101,3*%
%TO.N,Net-(C101-Pad1)*%
X10915800Y3489000D03*
%TO.P,U101,2*%
%TO.N,Net-(C102-Pad1)*%
X13315800Y4439000D03*
%TO.P,U101,1*%
%TO.N,GND*%
X13315800Y2539000D03*
%TD*%
D13*
%TO.P,L101,2*%
%TO.N,Net-(C101-Pad1)*%
X6026400Y5816600D03*
%TO.P,L101,1*%
%TO.N,Net-(L101-Pad1)*%
X3676400Y5816600D03*
%TD*%
D14*
%TO.N,Net-(C102-Pad1)*%
X18895749Y6345382D02*
X19058829Y6295912D01*
X19209127Y6215577D01*
X19340863Y6107463D01*
X19448977Y5975727D01*
X19529312Y5825429D01*
X19578782Y5662349D01*
X19595486Y5492750D01*
X19578782Y5323151D01*
X19529312Y5160071D01*
X19448977Y5009773D01*
X19340863Y4878037D01*
X19209127Y4769923D01*
X19058829Y4689588D01*
X18895749Y4640118D01*
X18719916Y4622800D01*
X13995400Y4622800D01*
X13970624Y4620360D01*
X13883143Y4602959D01*
X13859318Y4595732D01*
X13837362Y4583996D01*
X13763198Y4534442D01*
X13743953Y4518648D01*
X13728158Y4499402D01*
X13678604Y4425238D01*
X13666868Y4403281D01*
X13659641Y4379457D01*
X13629767Y4229271D01*
X13608283Y4197117D01*
X13576129Y4175633D01*
X13525691Y4165600D01*
X13325942Y4165600D01*
X13216366Y4182955D01*
X13126528Y4228730D01*
X13055230Y4300028D01*
X13009455Y4389866D01*
X12992100Y4499442D01*
X12992100Y5483466D01*
X13009476Y5659889D01*
X13059122Y5823550D01*
X13139738Y5974372D01*
X13248230Y6106570D01*
X13380428Y6215062D01*
X13531250Y6295678D01*
X13694911Y6345324D01*
X13871334Y6362700D01*
X18719916Y6362700D01*
X18895749Y6345382D01*
%TA.AperFunction,Conductor*%
G36*
X18895749Y6345382D02*
G01*
X19058829Y6295912D01*
X19209127Y6215577D01*
X19340863Y6107463D01*
X19448977Y5975727D01*
X19529312Y5825429D01*
X19578782Y5662349D01*
X19595486Y5492750D01*
X19578782Y5323151D01*
X19529312Y5160071D01*
X19448977Y5009773D01*
X19340863Y4878037D01*
X19209127Y4769923D01*
X19058829Y4689588D01*
X18895749Y4640118D01*
X18719916Y4622800D01*
X13995400Y4622800D01*
X13970624Y4620360D01*
X13883143Y4602959D01*
X13859318Y4595732D01*
X13837362Y4583996D01*
X13763198Y4534442D01*
X13743953Y4518648D01*
X13728158Y4499402D01*
X13678604Y4425238D01*
X13666868Y4403281D01*
X13659641Y4379457D01*
X13629767Y4229271D01*
X13608283Y4197117D01*
X13576129Y4175633D01*
X13525691Y4165600D01*
X13325942Y4165600D01*
X13216366Y4182955D01*
X13126528Y4228730D01*
X13055230Y4300028D01*
X13009455Y4389866D01*
X12992100Y4499442D01*
X12992100Y5483466D01*
X13009476Y5659889D01*
X13059122Y5823550D01*
X13139738Y5974372D01*
X13248230Y6106570D01*
X13380428Y6215062D01*
X13531250Y6295678D01*
X13694911Y6345324D01*
X13871334Y6362700D01*
X18719916Y6362700D01*
X18895749Y6345382D01*
G37*
%TD.AperFunction*%
%TD*%
%TO.N,Net-(C101-Pad1)*%
X10536689Y6345324D02*
X10700350Y6295678D01*
X10851172Y6215062D01*
X10983370Y6106570D01*
X11091862Y5974372D01*
X11172478Y5823550D01*
X11222124Y5659889D01*
X11239500Y5483466D01*
X11239500Y3546942D01*
X11222145Y3437366D01*
X11176370Y3347528D01*
X11105072Y3276230D01*
X11015234Y3230455D01*
X10915650Y3214683D01*
X10816066Y3230455D01*
X10726228Y3276230D01*
X10654930Y3347528D01*
X10609155Y3437366D01*
X10591800Y3546942D01*
X10591800Y3790950D01*
X10591001Y3805169D01*
X10573329Y3962013D01*
X10567001Y3989739D01*
X10514871Y4138718D01*
X10502532Y4164341D01*
X10418558Y4297985D01*
X10400827Y4320220D01*
X10289220Y4431827D01*
X10266985Y4449558D01*
X10133341Y4533532D01*
X10107718Y4545871D01*
X9958739Y4598001D01*
X9931013Y4604329D01*
X9774169Y4622001D01*
X9759950Y4622800D01*
X7737942Y4622800D01*
X7640139Y4638290D01*
X7560923Y4678653D01*
X7498053Y4741523D01*
X7457690Y4820739D01*
X7420435Y5055964D01*
X7414149Y5080053D01*
X7408157Y5093754D01*
X7349530Y5208815D01*
X7336107Y5229783D01*
X7326175Y5240961D01*
X7234861Y5332275D01*
X7215615Y5348069D01*
X7202715Y5355630D01*
X7087654Y5414257D01*
X7064470Y5423331D01*
X7049864Y5426535D01*
X6922317Y5446736D01*
X6902450Y5448300D01*
X5964620Y5448300D01*
X5861264Y5461907D01*
X5772696Y5498594D01*
X5696647Y5556947D01*
X5638294Y5632996D01*
X5601607Y5721564D01*
X5589095Y5816600D01*
X5601607Y5911636D01*
X5638294Y6000204D01*
X5696647Y6076253D01*
X5772696Y6134606D01*
X5861264Y6171293D01*
X5964620Y6184900D01*
X7226300Y6184900D01*
X7251076Y6187340D01*
X7274900Y6194567D01*
X7337762Y6220605D01*
X7359719Y6232341D01*
X7378964Y6248135D01*
X7394758Y6267380D01*
X7406495Y6289338D01*
X7436882Y6362700D01*
X10360266Y6362700D01*
X10536689Y6345324D01*
%TA.AperFunction,Conductor*%
G36*
X10536689Y6345324D02*
G01*
X10700350Y6295678D01*
X10851172Y6215062D01*
X10983370Y6106570D01*
X11091862Y5974372D01*
X11172478Y5823550D01*
X11222124Y5659889D01*
X11239500Y5483466D01*
X11239500Y3546942D01*
X11222145Y3437366D01*
X11176370Y3347528D01*
X11105072Y3276230D01*
X11015234Y3230455D01*
X10915650Y3214683D01*
X10816066Y3230455D01*
X10726228Y3276230D01*
X10654930Y3347528D01*
X10609155Y3437366D01*
X10591800Y3546942D01*
X10591800Y3790950D01*
X10591001Y3805169D01*
X10573329Y3962013D01*
X10567001Y3989739D01*
X10514871Y4138718D01*
X10502532Y4164341D01*
X10418558Y4297985D01*
X10400827Y4320220D01*
X10289220Y4431827D01*
X10266985Y4449558D01*
X10133341Y4533532D01*
X10107718Y4545871D01*
X9958739Y4598001D01*
X9931013Y4604329D01*
X9774169Y4622001D01*
X9759950Y4622800D01*
X7737942Y4622800D01*
X7640139Y4638290D01*
X7560923Y4678653D01*
X7498053Y4741523D01*
X7457690Y4820739D01*
X7420435Y5055964D01*
X7414149Y5080053D01*
X7408157Y5093754D01*
X7349530Y5208815D01*
X7336107Y5229783D01*
X7326175Y5240961D01*
X7234861Y5332275D01*
X7215615Y5348069D01*
X7202715Y5355630D01*
X7087654Y5414257D01*
X7064470Y5423331D01*
X7049864Y5426535D01*
X6922317Y5446736D01*
X6902450Y5448300D01*
X5964620Y5448300D01*
X5861264Y5461907D01*
X5772696Y5498594D01*
X5696647Y5556947D01*
X5638294Y5632996D01*
X5601607Y5721564D01*
X5589095Y5816600D01*
X5601607Y5911636D01*
X5638294Y6000204D01*
X5696647Y6076253D01*
X5772696Y6134606D01*
X5861264Y6171293D01*
X5964620Y6184900D01*
X7226300Y6184900D01*
X7251076Y6187340D01*
X7274900Y6194567D01*
X7337762Y6220605D01*
X7359719Y6232341D01*
X7378964Y6248135D01*
X7394758Y6267380D01*
X7406495Y6289338D01*
X7436882Y6362700D01*
X10360266Y6362700D01*
X10536689Y6345324D01*
G37*
%TD.AperFunction*%
%TD*%
%TO.N,Net-(L101-Pad1)*%
X3842397Y6171296D02*
X3931904Y6134557D01*
X4008972Y6076072D01*
X4068444Y5999754D01*
X4106328Y5910726D01*
X4120063Y5815096D01*
X4108756Y5720648D01*
X4073253Y5632549D01*
X4015999Y5556767D01*
X3940948Y5498539D01*
X3853319Y5461913D01*
X3750765Y5448300D01*
X3600450Y5448300D01*
X3583874Y5447214D01*
X3454037Y5430121D01*
X3422012Y5421540D01*
X3301024Y5371425D01*
X3272312Y5354848D01*
X3168417Y5275126D01*
X3144974Y5251683D01*
X3065252Y5147788D01*
X3048675Y5119076D01*
X2998560Y4998088D01*
X2989979Y4966063D01*
X2957975Y4722967D01*
X2920657Y4632873D01*
X2861292Y4555508D01*
X2783927Y4496143D01*
X2693833Y4458825D01*
X2588823Y4445000D01*
X1346084Y4445000D01*
X1170251Y4462318D01*
X1007171Y4511788D01*
X856873Y4592123D01*
X725137Y4700237D01*
X617023Y4831973D01*
X536688Y4982271D01*
X487218Y5145351D01*
X470514Y5314950D01*
X487218Y5484549D01*
X536688Y5647629D01*
X617023Y5797927D01*
X725137Y5929663D01*
X856873Y6037777D01*
X1007171Y6118112D01*
X1170251Y6167582D01*
X1346084Y6184900D01*
X3738203Y6184900D01*
X3842397Y6171296D01*
%TA.AperFunction,Conductor*%
G36*
X3842397Y6171296D02*
G01*
X3931904Y6134557D01*
X4008972Y6076072D01*
X4068444Y5999754D01*
X4106328Y5910726D01*
X4120063Y5815096D01*
X4108756Y5720648D01*
X4073253Y5632549D01*
X4015999Y5556767D01*
X3940948Y5498539D01*
X3853319Y5461913D01*
X3750765Y5448300D01*
X3600450Y5448300D01*
X3583874Y5447214D01*
X3454037Y5430121D01*
X3422012Y5421540D01*
X3301024Y5371425D01*
X3272312Y5354848D01*
X3168417Y5275126D01*
X3144974Y5251683D01*
X3065252Y5147788D01*
X3048675Y5119076D01*
X2998560Y4998088D01*
X2989979Y4966063D01*
X2957975Y4722967D01*
X2920657Y4632873D01*
X2861292Y4555508D01*
X2783927Y4496143D01*
X2693833Y4458825D01*
X2588823Y4445000D01*
X1346084Y4445000D01*
X1170251Y4462318D01*
X1007171Y4511788D01*
X856873Y4592123D01*
X725137Y4700237D01*
X617023Y4831973D01*
X536688Y4982271D01*
X487218Y5145351D01*
X470514Y5314950D01*
X487218Y5484549D01*
X536688Y5647629D01*
X617023Y5797927D01*
X725137Y5929663D01*
X856873Y6037777D01*
X1007171Y6118112D01*
X1170251Y6167582D01*
X1346084Y6184900D01*
X3738203Y6184900D01*
X3842397Y6171296D01*
G37*
%TD.AperFunction*%
%TD*%
%TO.N,GND*%
X2817739Y3048317D02*
X2879253Y3016974D01*
X2928074Y2968153D01*
X2959417Y2906639D01*
X2990458Y2710658D01*
X2996744Y2686569D01*
X3002736Y2672870D01*
X3052343Y2575510D01*
X3065765Y2554541D01*
X3075698Y2543363D01*
X3152963Y2466098D01*
X3172209Y2450304D01*
X3185110Y2442743D01*
X3282470Y2393136D01*
X3305653Y2384062D01*
X3320258Y2380858D01*
X3428182Y2363764D01*
X3448050Y2362200D01*
X12642850Y2362200D01*
X12667627Y2364640D01*
X12752678Y2381558D01*
X12776502Y2388785D01*
X12798459Y2400522D01*
X12870562Y2448700D01*
X12889807Y2464494D01*
X12905600Y2483738D01*
X12953778Y2555841D01*
X12965515Y2577798D01*
X12972742Y2601622D01*
X13001650Y2746949D01*
X13021758Y2777042D01*
X13051851Y2797150D01*
X13099861Y2806700D01*
X13532039Y2806700D01*
X13580049Y2797150D01*
X13610142Y2777042D01*
X13630250Y2746949D01*
X13659158Y2601622D01*
X13666385Y2577798D01*
X13678122Y2555841D01*
X13726300Y2483738D01*
X13742094Y2464493D01*
X13761338Y2448700D01*
X13833441Y2400522D01*
X13855398Y2388785D01*
X13879222Y2381558D01*
X13964273Y2364640D01*
X13989050Y2362200D01*
X17373600Y2362200D01*
X17393467Y2363764D01*
X17499429Y2380547D01*
X17523519Y2386833D01*
X17537218Y2392825D01*
X17632808Y2441530D01*
X17653776Y2454952D01*
X17664955Y2464885D01*
X17740815Y2540745D01*
X17756609Y2559991D01*
X17764170Y2572892D01*
X17812875Y2668482D01*
X17821949Y2691666D01*
X17825153Y2706271D01*
X17855572Y2898327D01*
X17886013Y2958071D01*
X17933429Y3005487D01*
X17993173Y3035928D01*
X18069392Y3048000D01*
X18707216Y3048000D01*
X18883049Y3030682D01*
X19046129Y2981212D01*
X19196427Y2900877D01*
X19328163Y2792763D01*
X19436277Y2661027D01*
X19516612Y2510729D01*
X19566082Y2347649D01*
X19583400Y2171816D01*
X19583400Y1501534D01*
X19566024Y1325111D01*
X19516378Y1161450D01*
X19435762Y1010628D01*
X19327270Y878430D01*
X19195072Y769938D01*
X19044250Y689322D01*
X18880589Y639676D01*
X18704166Y622300D01*
X1349134Y622300D01*
X1172711Y639676D01*
X1009050Y689322D01*
X858228Y769938D01*
X726030Y878430D01*
X617538Y1010628D01*
X536922Y1161450D01*
X487276Y1325111D01*
X469900Y1501534D01*
X469900Y2181466D01*
X487276Y2357889D01*
X536922Y2521550D01*
X617538Y2672372D01*
X726030Y2804570D01*
X858228Y2913062D01*
X1009050Y2993678D01*
X1172711Y3043324D01*
X1349134Y3060700D01*
X2739556Y3060700D01*
X2817739Y3048317D01*
%TA.AperFunction,Conductor*%
G36*
X2817739Y3048317D02*
G01*
X2879253Y3016974D01*
X2928074Y2968153D01*
X2959417Y2906639D01*
X2990458Y2710658D01*
X2996744Y2686569D01*
X3002736Y2672870D01*
X3052343Y2575510D01*
X3065765Y2554541D01*
X3075698Y2543363D01*
X3152963Y2466098D01*
X3172209Y2450304D01*
X3185110Y2442743D01*
X3282470Y2393136D01*
X3305653Y2384062D01*
X3320258Y2380858D01*
X3428182Y2363764D01*
X3448050Y2362200D01*
X12642850Y2362200D01*
X12667627Y2364640D01*
X12752678Y2381558D01*
X12776502Y2388785D01*
X12798459Y2400522D01*
X12870562Y2448700D01*
X12889807Y2464494D01*
X12905600Y2483738D01*
X12953778Y2555841D01*
X12965515Y2577798D01*
X12972742Y2601622D01*
X13001650Y2746949D01*
X13021758Y2777042D01*
X13051851Y2797150D01*
X13099861Y2806700D01*
X13532039Y2806700D01*
X13580049Y2797150D01*
X13610142Y2777042D01*
X13630250Y2746949D01*
X13659158Y2601622D01*
X13666385Y2577798D01*
X13678122Y2555841D01*
X13726300Y2483738D01*
X13742094Y2464493D01*
X13761338Y2448700D01*
X13833441Y2400522D01*
X13855398Y2388785D01*
X13879222Y2381558D01*
X13964273Y2364640D01*
X13989050Y2362200D01*
X17373600Y2362200D01*
X17393467Y2363764D01*
X17499429Y2380547D01*
X17523519Y2386833D01*
X17537218Y2392825D01*
X17632808Y2441530D01*
X17653776Y2454952D01*
X17664955Y2464885D01*
X17740815Y2540745D01*
X17756609Y2559991D01*
X17764170Y2572892D01*
X17812875Y2668482D01*
X17821949Y2691666D01*
X17825153Y2706271D01*
X17855572Y2898327D01*
X17886013Y2958071D01*
X17933429Y3005487D01*
X17993173Y3035928D01*
X18069392Y3048000D01*
X18707216Y3048000D01*
X18883049Y3030682D01*
X19046129Y2981212D01*
X19196427Y2900877D01*
X19328163Y2792763D01*
X19436277Y2661027D01*
X19516612Y2510729D01*
X19566082Y2347649D01*
X19583400Y2171816D01*
X19583400Y1501534D01*
X19566024Y1325111D01*
X19516378Y1161450D01*
X19435762Y1010628D01*
X19327270Y878430D01*
X19195072Y769938D01*
X19044250Y689322D01*
X18880589Y639676D01*
X18704166Y622300D01*
X1349134Y622300D01*
X1172711Y639676D01*
X1009050Y689322D01*
X858228Y769938D01*
X726030Y878430D01*
X617538Y1010628D01*
X536922Y1161450D01*
X487276Y1325111D01*
X469900Y1501534D01*
X469900Y2181466D01*
X487276Y2357889D01*
X536922Y2521550D01*
X617538Y2672372D01*
X726030Y2804570D01*
X858228Y2913062D01*
X1009050Y2993678D01*
X1172711Y3043324D01*
X1349134Y3060700D01*
X2739556Y3060700D01*
X2817739Y3048317D01*
G37*
%TD.AperFunction*%
%TD*%
M02*
